<svg xmlns="http://www.w3.org/2000/svg" viewBox="0 0 1200 700" role="img" aria-label="Go Ultra AI dashboard preview placeholder">
  <defs>
    <linearGradient id="bg" x1="0" y1="0" x2="1" y2="1">
      <stop offset="0" stop-color="#faf5ff"/>
      <stop offset="1" stop-color="#ede9fe"/>
    </linearGradient>
    <linearGradient id="accent" x1="0" y1="0" x2="1" y2="0">
      <stop offset="0" stop-color="#a78bfa"/>
      <stop offset="1" stop-color="#7c3aed"/>
    </linearGradient>
  </defs>
  <rect width="1200" height="700" rx="20" fill="url(#bg)"/>
  <rect x="32" y="32" width="1136" height="56" rx="10" fill="#fff"/>
  <circle cx="62" cy="60" r="6" fill="#a78bfa"/>
  <rect x="80" y="54" width="120" height="12" rx="3" fill="#c4b5fd"/>
  <rect x="32" y="112" width="260" height="556" rx="14" fill="#fff"/>
  <rect x="56" y="140" width="180" height="10" rx="3" fill="#c4b5fd"/>
  <rect x="56" y="170" width="140" height="8" rx="3" fill="#ddd6fe"/>
  <rect x="56" y="200" width="200" height="36" rx="8" fill="url(#accent)"/>
  <rect x="56" y="252" width="200" height="36" rx="8" fill="#f3f4f6"/>
  <rect x="56" y="304" width="200" height="36" rx="8" fill="#f3f4f6"/>
  <rect x="56" y="356" width="200" height="36" rx="8" fill="#f3f4f6"/>
  <rect x="316" y="112" width="852" height="556" rx="14" fill="#fff"/>
  <rect x="344" y="140" width="280" height="14" rx="3" fill="#374151"/>
  <rect x="344" y="166" width="200" height="10" rx="3" fill="#9ca3af"/>
  <g>
    <rect x="344" y="208" width="252" height="180" rx="12" fill="#f5f3ff" stroke="#ddd6fe"/>
    <rect x="364" y="228" width="100" height="10" rx="3" fill="#7c3aed"/>
    <rect x="364" y="248" width="180" height="8" rx="3" fill="#c4b5fd"/>
    <rect x="364" y="266" width="140" height="8" rx="3" fill="#c4b5fd"/>
    <rect x="364" y="320" width="60" height="44" rx="8" fill="url(#accent)"/>
  </g>
  <g>
    <rect x="616" y="208" width="252" height="180" rx="12" fill="#f5f3ff" stroke="#ddd6fe"/>
    <rect x="636" y="228" width="100" height="10" rx="3" fill="#7c3aed"/>
    <rect x="636" y="248" width="180" height="8" rx="3" fill="#c4b5fd"/>
    <rect x="636" y="266" width="120" height="8" rx="3" fill="#c4b5fd"/>
    <rect x="636" y="320" width="60" height="44" rx="8" fill="#fff" stroke="#c4b5fd"/>
  </g>
  <g>
    <rect x="888" y="208" width="252" height="180" rx="12" fill="#f5f3ff" stroke="#ddd6fe"/>
    <rect x="908" y="228" width="100" height="10" rx="3" fill="#7c3aed"/>
    <rect x="908" y="248" width="180" height="8" rx="3" fill="#c4b5fd"/>
    <rect x="908" y="320" width="60" height="44" rx="8" fill="#fff" stroke="#c4b5fd"/>
  </g>
  <rect x="344" y="420" width="796" height="220" rx="12" fill="#fafafa" stroke="#e5e7eb"/>
  <rect x="364" y="444" width="160" height="12" rx="3" fill="#374151"/>
  <g stroke="#e5e7eb">
    <line x1="344" y1="490" x2="1140" y2="490"/>
    <line x1="344" y1="540" x2="1140" y2="540"/>
    <line x1="344" y1="590" x2="1140" y2="590"/>
  </g>
  <g fill="#7c3aed">
    <rect x="380" y="500" width="80" height="30" rx="6"/>
    <rect x="500" y="550" width="100" height="30" rx="6"/>
    <rect x="640" y="500" width="60" height="30" rx="6"/>
    <rect x="740" y="550" width="120" height="30" rx="6"/>
    <rect x="900" y="500" width="80" height="30" rx="6"/>
  </g>
</svg>
